name rise30.8019peak61.5557fall86.2505.mot
datacolumns 19
datarows 30
range 9.03163400000000 9.07997100000000
endheader
time	ground_force1_vx	ground_force1_vy	ground_force1_vz	ground_force1_px	ground_force1_py	ground_force1_pz	ground_force2_vx	ground_force2_vy	ground_force2_vz	ground_force2_px	ground_force2_py	ground_force2_pz	ground_torque1_x	ground_torque1_y	ground_torque1_z	ground_torque2_x	ground_torque2_y	ground_torque2_z	
9.03163400000000	-4.24420200000000	674.20641699999999	29.68988700000000	0.11797200000000	0.00000000000000	0.09903200000000	0.00000000000000	0.00000000000000	0.00000000000000	0.00000000000000	0.00000000000000	0.00000000000000	0.00000000000000	9.69602700000000	0.00000000000000	0.00000000000000	0.00000000000000	0.00000000000000	
9.03330000000000	-4.88297500000000	674.88482199999999	29.67394800000000	0.11668800000000	0.00000000000000	0.09905200000000	0.00000000000000	0.00000000000000	0.00000000000000	0.00000000000000	0.00000000000000	0.00000000000000	0.00000000000000	9.78391700000000	0.00000000000000	0.00000000000000	0.00000000000000	0.00000000000000	
9.03496500000000	-5.53192600000000	675.58138699999995	29.66204000000000	0.11540400000000	0.00000000000000	0.09907400000000	0.00000000000000	0.00000000000000	0.00000000000000	0.00000000000000	0.00000000000000	0.00000000000000	0.00000000000000	9.87583400000000	0.00000000000000	0.00000000000000	0.00000000000000	0.00000000000000	
9.03663200000000	-6.19076700000000	676.29725099999996	29.65429900000000	0.11412200000000	0.00000000000000	0.09909600000000	0.00000000000000	0.00000000000000	0.00000000000000	0.00000000000000	0.00000000000000	0.00000000000000	0.00000000000000	9.97179100000000	0.00000000000000	0.00000000000000	0.00000000000000	0.00000000000000	
9.03829900000000	-6.85918700000000	677.03364199999999	29.65086600000000	0.11284200000000	0.00000000000000	0.09911900000000	0.00000000000000	0.00000000000000	0.00000000000000	0.00000000000000	0.00000000000000	0.00000000000000	0.00000000000000	10.07179600000000	0.00000000000000	0.00000000000000	0.00000000000000	0.00000000000000	
9.03997100000000	-7.53685900000000	677.79187000000002	29.65188100000000	0.11156700000000	0.00000000000000	0.09914200000000	0.00000000000000	0.00000000000000	0.00000000000000	0.00000000000000	0.00000000000000	0.00000000000000	0.00000000000000	10.17584900000000	0.00000000000000	0.00000000000000	0.00000000000000	0.00000000000000	
9.04164000000000	-8.22343300000000	678.57331799999997	29.65748600000000	0.11029600000000	0.00000000000000	0.09916700000000	0.00000000000000	0.00000000000000	0.00000000000000	0.00000000000000	0.00000000000000	0.00000000000000	0.00000000000000	10.28394200000000	0.00000000000000	0.00000000000000	0.00000000000000	0.00000000000000	
9.04329900000000	-8.91854800000000	679.37944000000005	29.66782300000000	0.10903000000000	0.00000000000000	0.09919100000000	0.00000000000000	0.00000000000000	0.00000000000000	0.00000000000000	0.00000000000000	0.00000000000000	0.00000000000000	10.39606100000000	0.00000000000000	0.00000000000000	0.00000000000000	0.00000000000000	
9.04497000000000	-9.62182300000000	680.21174399999995	29.68303200000000	0.10777200000000	0.00000000000000	0.09921700000000	0.00000000000000	0.00000000000000	0.00000000000000	0.00000000000000	0.00000000000000	0.00000000000000	0.00000000000000	10.51218200000000	0.00000000000000	0.00000000000000	0.00000000000000	0.00000000000000	
9.04663900000000	-10.33286800000000	681.07178799999997	29.70324900000000	0.10652200000000	0.00000000000000	0.09924300000000	0.00000000000000	0.00000000000000	0.00000000000000	0.00000000000000	0.00000000000000	0.00000000000000	0.00000000000000	10.63227400000000	0.00000000000000	0.00000000000000	0.00000000000000	0.00000000000000	
9.04830000000000	-11.05127900000000	681.96117200000003	29.72860900000000	0.10528000000000	0.00000000000000	0.09926900000000	0.00000000000000	0.00000000000000	0.00000000000000	0.00000000000000	0.00000000000000	0.00000000000000	0.00000000000000	10.75629800000000	0.00000000000000	0.00000000000000	0.00000000000000	0.00000000000000	
9.04996900000000	-11.77664300000000	682.88152300000002	29.75924400000000	0.10404700000000	0.00000000000000	0.09929500000000	0.00000000000000	0.00000000000000	0.00000000000000	0.00000000000000	0.00000000000000	0.00000000000000	0.00000000000000	10.88420500000000	0.00000000000000	0.00000000000000	0.00000000000000	0.00000000000000	
9.05163300000000	-12.50853900000000	683.83448699999997	29.79527800000000	0.10282500000000	0.00000000000000	0.09932200000000	0.00000000000000	0.00000000000000	0.00000000000000	0.00000000000000	0.00000000000000	0.00000000000000	0.00000000000000	11.01593800000000	0.00000000000000	0.00000000000000	0.00000000000000	0.00000000000000	
9.05330500000000	-13.24653700000000	684.82172100000003	29.83683500000000	0.10161300000000	0.00000000000000	0.09934900000000	0.00000000000000	0.00000000000000	0.00000000000000	0.00000000000000	0.00000000000000	0.00000000000000	0.00000000000000	11.15143000000000	0.00000000000000	0.00000000000000	0.00000000000000	0.00000000000000	
9.05496500000000	-13.99020400000000	685.84487700000000	29.88402900000000	0.10041300000000	0.00000000000000	0.09937700000000	0.00000000000000	0.00000000000000	0.00000000000000	0.00000000000000	0.00000000000000	0.00000000000000	0.00000000000000	11.29060500000000	0.00000000000000	0.00000000000000	0.00000000000000	0.00000000000000	
9.05663800000000	-14.73909900000000	686.90559499999995	29.93697000000000	0.09922400000000	0.00000000000000	0.09940400000000	0.00000000000000	0.00000000000000	0.00000000000000	0.00000000000000	0.00000000000000	0.00000000000000	0.00000000000000	11.43338000000000	0.00000000000000	0.00000000000000	0.00000000000000	0.00000000000000	
9.05830000000000	-15.49278000000000	688.00548900000001	29.99576300000000	0.09804800000000	0.00000000000000	0.09943200000000	0.00000000000000	0.00000000000000	0.00000000000000	0.00000000000000	0.00000000000000	0.00000000000000	0.00000000000000	11.57966000000000	0.00000000000000	0.00000000000000	0.00000000000000	0.00000000000000	
9.05996400000000	-16.25080100000000	689.14613599999996	30.06050400000000	0.09688500000000	0.00000000000000	0.09946000000000	0.00000000000000	0.00000000000000	0.00000000000000	0.00000000000000	0.00000000000000	0.00000000000000	0.00000000000000	11.72934100000000	0.00000000000000	0.00000000000000	0.00000000000000	0.00000000000000	
9.06163400000000	-17.01271500000000	690.32906400000002	30.13128500000000	0.09573500000000	0.00000000000000	0.09948800000000	0.00000000000000	0.00000000000000	0.00000000000000	0.00000000000000	0.00000000000000	0.00000000000000	0.00000000000000	11.88230900000000	0.00000000000000	0.00000000000000	0.00000000000000	0.00000000000000	
9.06330000000000	-17.77807400000000	691.55574400000000	30.20818800000000	0.09459900000000	0.00000000000000	0.09951500000000	0.00000000000000	0.00000000000000	0.00000000000000	0.00000000000000	0.00000000000000	0.00000000000000	0.00000000000000	12.03844400000000	0.00000000000000	0.00000000000000	0.00000000000000	0.00000000000000	
9.06496800000000	-18.54642800000000	692.82757100000003	30.29129100000000	0.09347600000000	0.00000000000000	0.09954300000000	0.00000000000000	0.00000000000000	0.00000000000000	0.00000000000000	0.00000000000000	0.00000000000000	0.00000000000000	12.19761100000000	0.00000000000000	0.00000000000000	0.00000000000000	0.00000000000000	
9.06663700000000	-19.31733100000000	694.14585899999997	30.38066300000000	0.09236600000000	0.00000000000000	0.09957100000000	0.00000000000000	0.00000000000000	0.00000000000000	0.00000000000000	0.00000000000000	0.00000000000000	0.00000000000000	12.35967100000000	0.00000000000000	0.00000000000000	0.00000000000000	0.00000000000000	
9.06830200000000	-20.09033600000000	695.51182700000004	30.47636700000000	0.09127100000000	0.00000000000000	0.09959900000000	0.00000000000000	0.00000000000000	0.00000000000000	0.00000000000000	0.00000000000000	0.00000000000000	0.00000000000000	12.52447300000000	0.00000000000000	0.00000000000000	0.00000000000000	0.00000000000000	
9.06996900000000	-20.86499600000000	696.92658800000004	30.57845800000000	0.09018900000000	0.00000000000000	0.09962700000000	0.00000000000000	0.00000000000000	0.00000000000000	0.00000000000000	0.00000000000000	0.00000000000000	0.00000000000000	12.69185700000000	0.00000000000000	0.00000000000000	0.00000000000000	0.00000000000000	
9.07163900000000	-21.64086800000000	698.39113699999996	30.68698500000000	0.08912000000000	0.00000000000000	0.09965500000000	0.00000000000000	0.00000000000000	0.00000000000000	0.00000000000000	0.00000000000000	0.00000000000000	0.00000000000000	12.86165400000000	0.00000000000000	0.00000000000000	0.00000000000000	0.00000000000000	
9.07330100000000	-22.41751000000000	699.90634299999999	30.80198900000000	0.08806600000000	0.00000000000000	0.09968200000000	0.00000000000000	0.00000000000000	0.00000000000000	0.00000000000000	0.00000000000000	0.00000000000000	0.00000000000000	13.03368800000000	0.00000000000000	0.00000000000000	0.00000000000000	0.00000000000000	
9.07496500000000	-23.19448200000000	701.47293500000001	30.92350600000000	0.08702400000000	0.00000000000000	0.09971000000000	0.00000000000000	0.00000000000000	0.00000000000000	0.00000000000000	0.00000000000000	0.00000000000000	0.00000000000000	13.20777300000000	0.00000000000000	0.00000000000000	0.00000000000000	0.00000000000000	
9.07663900000000	-23.97134500000000	703.09149600000001	31.05156300000000	0.08599600000000	0.00000000000000	0.09973700000000	0.00000000000000	0.00000000000000	0.00000000000000	0.00000000000000	0.00000000000000	0.00000000000000	0.00000000000000	13.38371400000000	0.00000000000000	0.00000000000000	0.00000000000000	0.00000000000000	
9.07830500000000	-24.74766500000000	704.76245300000005	31.18618300000000	0.08498000000000	0.00000000000000	0.09976400000000	0.00000000000000	0.00000000000000	0.00000000000000	0.00000000000000	0.00000000000000	0.00000000000000	0.00000000000000	13.56131000000000	0.00000000000000	0.00000000000000	0.00000000000000	0.00000000000000	
9.07997100000000	-25.52300900000000	706.48606400000006	31.32738300000000	0.08397700000000	0.00000000000000	0.09979100000000	0.00000000000000	0.00000000000000	0.00000000000000	0.00000000000000	0.00000000000000	0.00000000000000	0.00000000000000	13.74035200000000	0.00000000000000	0.00000000000000	0.00000000000000	0.00000000000000	
